PathFileType	4	(X/Y/Z)	C:/Users/opensim2020/Desktop/walking_exp_matlab/subject01_walking13_straight_04.trc																																																																																																																												
DataRate	CameraRate	NumFrames	NumMarkers	Units	OrigDataRate	OrigDataStartFrame	OrigNumFrames																																																																																																																								
100	100	8	42	mm	100	2125	135																																																																																																																								
Frame#	Time	LFHD			RFHD			LBHD			RBHD			C7			T10			CLAV			STRN			RBAK			LSHO			LUPA			LELB			LFRM			LWRA			LWRB			LFIN			RSHO			RUPA			RELB			RFRM			RWRA			RWRB			RFIN			LASI			RASI			LPSI			RPSI			LTHI			LKNE			LTIB			LANK			LHEE			LTOE			RTHI			RKNE			RTIB			RANK			RHEE			RTOE			*39			*40			*41		
		X1	Y1	Z1	X2	Y2	Z2	X3	Y3	Z3	X4	Y4	Z4	X5	Y5	Z5	X6	Y6	Z6	X7	Y7	Z7	X8	Y8	Z8	X9	Y9	Z9	X10	Y10	Z10	X11	Y11	Z11	X12	Y12	Z12	X13	Y13	Z13	X14	Y14	Z14	X15	Y15	Z15	X16	Y16	Z16	X17	Y17	Z17	X18	Y18	Z18	X19	Y19	Z19	X20	Y20	Z20	X21	Y21	Z21	X22	Y22	Z22	X23	Y23	Z23	X24	Y24	Z24	X25	Y25	Z25	X26	Y26	Z26	X27	Y27	Z27	X28	Y28	Z28	X29	Y29	Z29	X30	Y30	Z30	X31	Y31	Z31	X32	Y32	Z32	X33	Y33	Z33	X34	Y34	Z34	X35	Y35	Z35	X36	Y36	Z36	X37	Y37	Z37	X38	Y38	Z38	X39	Y39	Z39	X40	Y40	Z40	X41	Y41	Z41	X42	Y42	Z42
																																																																																																																															
17	0.16	-774.22363	1647.56335	-1531.93701	-756.7229	1658.53735	-1420.81445	-890.49109	1606.54663	-1517.25098	-875.776	1616.98413	-1398.96313	-934.88245	1416.89075	-1466.60876	-974.82068	1123.84558	-1441.20654	-793.39172	1344.92456	-1462.151	-752.00421	1191.37048	-1456.94141	-995.01355	1226.83484	-1377.9884	-856.05988	1364.13977	-1624.91565	-922.02454	1187.12927	-1696.11279	-969.62268	1043.22839	-1688.375	-953.72363	928.3985	-1707.07288	-895.77673	802.07623	-1685.23022	-952.44281	806.82678	-1705.2959	-920.30304	730.48218	-1717.11157	-857.008	1382.55212	-1311.81262	-931.87708	1199.15283	-1197.63269	-934.50909	1072.72559	-1176.29761	-857.74274	970.87079	-1163.53149	-743.06769	904.65601	-1211.1062	-771.47638	884.24738	-1165.69067	-699.97424	845.02686	-1173.05847	-788.62994	921.26263	-1534.60803	-808.61554	914.14465	-1319.6521	-979.88263	933.50446	-1501.97888	-989.28113	937.19269	-1357.85815	-736.27295	612.3111	-1598.99475	-707.32855	481.0835	-1580.51453	-733.22034	291.7912	-1598.42615	-744.17712	73.20075	-1550.63293	-788.04688	42.99483	-1497.99109	-597.85352	38.75941	-1557.74927	-913.66132	585.05243	-1264.64294	-942.12482	427.06418	-1280.20789	-1094.33325	335.29819	-1281.19531	-1248.91089	193.69067	-1322.32092	-1294.36584	219.65491	-1374.70447	-1232.02527	50.86029	-1352.36194	-767.53186	1691.36279	-1444.31055	-1973.10669	1023.30035	3101.94434	-2012.53931	1022.15692	3140.76025
18	0.17	-761.56525	1648.12976	-1535.3761	-744.32788	1659.6709	-1424.26172	-877.75378	1606.83154	-1520.68945	-863.31927	1617.87598	-1402.50549	-922.0321	1417.45715	-1469.47754	-961.19794	1124.52979	-1443.41321	-780.22742	1345.86157	-1464.1731	-738.54858	1192.34204	-1458.47876	-982.01617	1227.77747	-1380.13879	-841.98212	1364.65869	-1627.22852	-905.20966	1186.98938	-1698.93835	-951.54242	1042.57031	-1691.71558	-933.77136	928.02582	-1710.40771	-873.9646	802.48608	-1688.0791	-930.6264	806.21753	-1708.35071	-896.93915	730.81567	-1720.30457	-844.48914	1383.61182	-1314.23914	-920.7168	1200.28223	-1200.86951	-923.65118	1073.92981	-1179.65088	-849.19513	970.56744	-1165.33496	-735.14349	901.63422	-1211.6405	-764.61554	881.97644	-1166.39368	-694.61853	840.91071	-1172.81592	-775.26465	922.75677	-1537.28442	-795.17633	914.68744	-1322.18994	-966.39221	934.48743	-1503.60449	-975.84302	937.00592	-1359.39026	-722.82928	612.26282	-1600.20813	-698.31494	478.95627	-1582.16663	-728.27515	290.87823	-1599.13831	-743.51294	73.01034	-1550.33679	-787.87561	43.18764	-1497.97852	-597.20428	38.1861	-1557.92273	-892.12561	583.13373	-1265.55493	-916.4549	424.99579	-1280.91724	-1071.02063	337.58786	-1281.3501	-1229.07935	202.25281	-1322.91016	-1272.74939	230.97191	-1374.95581	-1221.04944	57.97122	-1351.77576	-755.56403	1692.15674	-1447.94702	-1973.1228	1023.63458	3101.90088	-2012.53784	1022.17047	3140.72192
19	0.18	-748.87689	1648.85608	-1538.69995	-731.86554	1660.9281	-1427.5929	-865.04181	1607.40918	-1523.96216	-850.80737	1619.06921	-1405.73364	-908.93695	1418.36804	-1472.06567	-947.82245	1125.34119	-1445.63892	-767.20398	1347.06409	-1465.95105	-725.3244	1193.46741	-1459.81885	-969.22394	1229.02197	-1381.98389	-827.99438	1365.3645	-1629.27734	-888.46631	1187.00098	-1701.51648	-933.37128	1041.87146	-1694.95081	-913.50958	927.75775	-1713.69153	-851.69861	803.35956	-1690.99536	-908.37646	805.84424	-1711.70703	-872.98865	731.0647	-1723.27844	-832.01331	1384.82727	-1316.39819	-909.38495	1201.42041	-1203.58691	-912.95032	1075.20801	-1182.91174	-840.76105	970.11383	-1167.24121	-727.65631	898.41968	-1212.01184	-758.2204	879.45801	-1167.03394	-689.07446	837.0246	-1172.51233	-762.1701	924.22113	-1539.90161	-782.82379	915.29089	-1324.97192	-953.11481	935.33502	-1505.29822	-962.60101	936.55188	-1361.03479	-712.51306	611.25037	-1601.75842	-690.76563	477.29626	-1584.02405	-724.22485	290.33585	-1599.38611	-743.13678	73.11256	-1550.21448	-787.78235	43.40114	-1498.0498	-596.54004	37.34436	-1557.6958	-870.30627	581.41321	-1266.89221	-890.31439	423.46588	-1281.95593	-1046.3938	339.77011	-1281.27002	-1207.90759	211.16856	-1324.44763	-1250.39941	241.42189	-1375.51489	-1207.27954	64.98045	-1351.16602	-743.42285	1693.2251	-1451.54846	-1973.18921	1023.47437	3101.79126	-2012.526	1022.12396	3140.9021
20	0.19	-736.13306	1649.63977	-1541.7699	-719.3288	1662.32361	-1430.76672	-852.25751	1608.20007	-1526.99353	-838.24377	1620.50305	-1408.93347	-895.83643	1419.48767	-1474.44116	-934.72675	1126.31604	-1447.83411	-754.2019	1348.34326	-1467.59131	-712.1795	1194.70972	-1461.11292	-956.46448	1230.34485	-1383.72034	-814.19678	1366.22522	-1631.15161	-871.79431	1187.28271	-1704.03528	-915.22571	1041.52466	-1698.29175	-893.01068	927.75885	-1717.0791	-828.87311	804.6366	-1693.80774	-885.40387	805.9325	-1714.97412	-848.40228	732.43127	-1726.83557	-819.66803	1386.06824	-1318.41125	-897.83075	1202.7135	-1205.94446	-902.38397	1076.3916	-1186.14868	-832.60657	969.68311	-1169.04333	-720.49469	895.4613	-1212.00952	-752.12677	877.12964	-1167.76428	-684.07758	832.92267	-1172.18018	-749.18353	925.36975	-1542.23145	-769.27216	916.67163	-1326.70886	-939.87946	936.15192	-1507.10547	-949.70483	936.0473	-1362.80103	-704.83777	610.12921	-1603.76611	-684.21698	476.18616	-1585.93774	-720.922	290.22397	-1599.63306	-742.78345	73.27689	-1550.13977	-787.66437	43.66166	-1498.09302	-596.18787	36.71357	-1557.79114	-848.44617	580.19769	-1268.29053	-863.7066	422.38391	-1283.02539	-1020.88367	341.88367	-1281.45776	-1185.45935	218.74513	-1326.19128	-1226.98767	250.36798	-1378.25696	-1190.35388	71.65247	-1349.13953	-731.08234	1694.45679	-1455.099	-1972.94397	1023.88232	3102.1062	-2012.50513	1021.95886	3140.802
21	0.2	-723.44501	1650.52954	-1544.73425	-706.6955	1663.85266	-1433.7594	-839.54132	1609.1333	-1529.85913	-825.66498	1622.12048	-1411.75366	-882.90497	1420.64258	-1476.62073	-921.82349	1127.43188	-1449.94458	-741.33173	1349.67749	-1469.02271	-699.20251	1196.07788	-1462.28467	-943.7674	1231.65149	-1385.64966	-800.58344	1367.28247	-1632.88757	-855.29657	1187.79846	-1706.47876	-897.15546	1041.36206	-1701.62744	-872.39655	927.97198	-1720.15906	-805.57068	806.36108	-1696.55078	-862.08167	806.39185	-1718.03247	-822.89307	733.85522	-1729.96106	-807.3316	1387.396	-1320.15125	-886.09778	1204.078	-1207.90857	-891.79846	1077.55688	-1189.19238	-824.58234	969.14532	-1170.8656	-712.66309	892.53882	-1211.94226	-746.36652	874.64258	-1168.32495	-679.4361	828.83728	-1171.74634	-736.47137	926.54932	-1544.41553	-756.2475	918.16748	-1328.50476	-927.11713	937.07617	-1508.91895	-937.01794	935.5697	-1364.52722	-698.04688	608.83057	-1605.52539	-678.16888	475.57379	-1587.58813	-718.18817	290.24417	-1600.20984	-742.55194	73.45254	-1550.08118	-787.52625	43.89105	-1498.04968	-595.85645	36.26621	-1557.922	-826.58459	579.74084	-1269.88013	-837.41699	422.28421	-1284.46423	-994.75024	343.84918	-1282.33081	-1162.26648	225.53976	-1328.3125	-1202.72144	256.90298	-1382.30273	-1170.82336	79.04921	-1346.38721	-718.31042	1695.93665	-1458.49182	-1973.0647	1023.60712	3101.92212	-2012.56738	1022.06586	3140.71265
22	0.21	-710.6377	1651.47791	-1547.40662	-694.0722	1665.36743	-1436.48767	-826.75641	1610.22998	-1532.50378	-813.01819	1623.83936	-1414.47449	-870.16949	1421.83252	-1478.58911	-909.15247	1128.62891	-1451.94873	-728.56226	1351.14453	-1470.38086	-686.38379	1197.42957	-1463.36475	-931.10175	1232.85205	-1387.83728	-787.10547	1368.45837	-1634.41345	-839.04034	1188.4823	-1708.76367	-879.11462	1041.36877	-1704.90466	-851.55634	928.60376	-1723.5061	-781.87787	808.77771	-1699.44836	-838.19751	807.30469	-1721.45349	-797.01154	736.18127	-1733.47534	-795.12457	1388.74963	-1321.86694	-874.25598	1205.58374	-1209.65955	-881.18616	1078.68848	-1192.14233	-816.81903	968.73553	-1172.6073	-706.21704	889.17072	-1212.17944	-741.26398	872.42737	-1168.7439	-675.06384	824.69043	-1171.50806	-723.93915	927.45062	-1546.25488	-744.21344	919.57397	-1330.35559	-914.47345	938.13617	-1510.698	-924.49475	935.39258	-1366.31262	-691.29944	608.04242	-1607.48157	-672.51697	474.97723	-1588.91858	-715.66119	290.1442	-1600.85889	-742.36279	73.66523	-1550.12402	-787.33038	44.19012	-1497.96924	-595.48993	36.07132	-1558.11902	-805.00897	580.53436	-1271.41309	-810.92487	422.75116	-1285.75806	-968.20782	345.50464	-1283.6355	-1138.7583	232.00748	-1330.71423	-1178.65015	261.90335	-1387.01355	-1147.35474	85.34266	-1343.198	-705.52533	1697.37451	-1461.43738	-1973.17432	1023.53204	3102.06665	-2012.60315	1022.06714	3140.6853
23	0.22	-697.83698	1652.52185	-1549.79211	-681.44891	1666.8689	-1438.84851	-814.08167	1611.43018	-1534.92749	-800.41895	1625.50269	-1416.80737	-857.55768	1423.08972	-1480.39331	-896.604	1129.97803	-1453.94189	-715.84485	1352.61145	-1471.63379	-673.74109	1198.85486	-1464.42053	-918.41986	1233.95642	-1390.27417	-773.78516	1369.7821	-1635.84802	-823.05817	1189.56677	-1711.16553	-861.16821	1041.55762	-1708.15637	-830.45538	929.44135	-1726.65173	-757.80127	811.61066	-1702.25098	-813.73535	808.59735	-1724.72632	-770.55292	738.86639	-1736.83191	-782.78271	1390.07605	-1323.35852	-862.30078	1207.05237	-1211.34033	-870.48419	1079.81177	-1194.78906	-809.14252	968.39392	-1174.12793	-700.05444	886.0094	-1212.09216	-735.94336	870.06158	-1168.89478	-671.15961	820.5257	-1170.95996	-711.51318	928.32483	-1548.07751	-731.01794	921.59998	-1331.43542	-901.8559	939.29297	-1512.37549	-911.91663	935.62964	-1368.09436	-684.62531	607.41083	-1609.12891	-667.04474	474.22705	-1590.13037	-712.99866	289.97528	-1601.52307	-741.85065	73.76945	-1550.0509	-787.10883	44.54403	-1497.82263	-595.12848	35.95334	-1558.21008	-783.87836	581.88867	-1273.00574	-784.75012	424.10904	-1287.3396	-941.74792	347.26721	-1284.96753	-1114.2583	237.05772	-1334.01746	-1154.90833	265.20667	-1391.3739	-1120.12524	89.97076	-1340.96094	-692.69928	1698.8927	-1464.2063	-1973.10388	1023.41748	3101.91333	-2012.54797	1022.01074	3140.74219
24	0.23	-684.9953	1653.5686	-1551.8446	-668.75378	1668.30811	-1441.05518	-801.51019	1612.76624	-1537.28015	-787.79895	1627.18982	-1418.89771	-844.91785	1424.3938	-1481.95581	-884.20294	1131.41675	-1455.94299	-703.20221	1353.99463	-1472.72229	-661.18066	1200.15979	-1465.46912	-905.82629	1235.03503	-1392.77734	-760.52899	1371.18054	-1637.1145	-807.35052	1190.57581	-1713.02881	-843.27332	1041.89612	-1711.29114	-809.24298	930.58118	-1729.65417	-733.4682	814.96332	-1705.07031	-789.08295	810.31403	-1727.78162	-743.84796	742.40222	-1740.4281	-770.62354	1391.48608	-1324.81396	-850.38385	1208.4613	-1213.00464	-859.59375	1081.02954	-1197.12463	-801.42133	968.22693	-1175.50293	-694.22125	882.83667	-1211.75366	-731.09552	868.02106	-1169.03516	-667.63104	816.37311	-1170.40491	-699.19775	929.11047	-1549.77759	-718.29681	923.39746	-1332.69177	-889.43237	940.45648	-1513.96387	-899.32806	936.21863	-1369.63916	-677.86829	606.63361	-1610.37183	-661.84271	473.41904	-1591.39795	-710.11255	289.37314	-1602.15698	-741.41449	73.82275	-1550.01599	-787.08282	45.02105	-1497.78784	-594.98956	35.86251	-1558.32532	-763.23187	583.68506	-1274.91772	-758.77582	426.14606	-1289.04211	-915.37512	349.01633	-1286.66614	-1088.78503	240.59804	-1337.55774	-1131.11279	266.72928	-1394.8009	-1089.74011	93.77552	-1339.75891	-680.00012	1700.25732	-1466.47852	-1973.11438	1023.44238	3101.97876	-2012.49756	1022.11426	3140.55444
